# xmcd CD database file
#
# Track frame offsets:
#	150
#	11942
#	25912
#	39072
#	52452
#	64672
#	77475
#	91762
#	104570
#	119575
#	130237
#	142877
#	155247
#	168090
#	181322
#	194567
#	207465
#	219782
#	236790
#	247277
#	260100
#	275625
#	287587
#	300687
#	314765
#
# Disc length: 4396 seconds
#
# Revision: 1
# Processed by: cddbd v1.5.2PL0 Copyright (c) Steve Scherf et al.
# Submitted via: CDex 1.70beta2
#
DISCID=81112a19
DTITLE=Alice Babs - Swing It! - 1939-1953
DYEAR=1994
DGENRE=Jazz
TTITLE0=On The Bumby Road To Love - (1939)
TTITLE1=Some Of These Days - (1939)
TTITLE2=I May Be Wrong - (1940)
TTITLE3=Dedicated To You - (1940)
TTITLE4=Jitterbug från Söder - (1940)
TTITLE5=Swing It, Magistern - (1940)
TTITLE6=Minne The Moocher's Wedding Day - (1941)
TTITLE7=You're Driving Me Crazy - (1941)
TTITLE8=I Would Like Ti Sing A Song - (1941)
TTITLE9=Lady Be Good - (1942)
TTITLE10=Ain't She Sweet - (1942)
TTITLE11=Yodel In Swing - (1942)
TTITLE12=I Want Music - (1943)
TTITLE13=I Spy - (1943)
TTITLE14=Invitation To A Jumpy Session Party - (1944)
TTITLE15=One Hundred Per Cent - (1944)
TTITLE16=Undecided - (1945)
TTITLE17=Truckin' - (1945)
TTITLE18=Darktown Strutters' Ball - (1945)
TTITLE19=I'm A Little On The Loney Side - (1945)
TTITLE20=The Blues For Yesterday - (1948)
TTITLE21=Suger - (1949)
TTITLE22=Fiddle Dee Dee - (1950)
TTITLE23=I'm Checkin' Out Go'om Bye - (1951)
TTITLE24=Opus In Scat - (1953)
EXTD=YEAR: 1994
EXTT0=
EXTT1=
EXTT2=
EXTT3=
EXTT4=
EXTT5=
EXTT6=
EXTT7=
EXTT8=
EXTT9=
EXTT10=
EXTT11=
EXTT12=
EXTT13=
EXTT14=
EXTT15=
EXTT16=
EXTT17=
EXTT18=
EXTT19=
EXTT20=
EXTT21=
EXTT22=
EXTT23=
EXTT24=
PLAYORDER=
